<?xml version="1.0" encoding="utf-8"?>
<!-- Generator: Adobe Illustrator 16.0.0, SVG Export Plug-In . SVG Version: 6.00 Build 0)  -->
<!DOCTYPE svg PUBLIC "-//W3C//DTD SVG 1.1//EN" "http://www.w3.org/Graphics/SVG/1.1/DTD/svg11.dtd">
<svg version="1.1" id="Layer_1" xmlns="http://www.w3.org/2000/svg" xmlns:xlink="http://www.w3.org/1999/xlink" x="0px" y="0px"
	 width="148.973px" height="51.894px" viewBox="0 0 148.973 51.894" enable-background="new 0 0 148.973 51.894"
	 xml:space="preserve">
<path fill="none" stroke="#068922" stroke-miterlimit="10" d="M11.073,50.269h5.339l13.285-0.297l7.51-2.946l4.142-6.886v-7.438
	l-2.616-5.212l-4.962-3.05l5.882-4.068l1.982-5.212l-0.344-4.895l-2.27-4.258l-4.376-3.164l-6.877-1.575H0.347v49H11.073z
	 M25.236,22.152L6.347,22.089V7.269h21.043l4.148,0.736l2.797,2.625l0.509,3.378l-0.827,4.136l-3.735,3.104L25.236,22.152z"/>
<polygon fill="none" stroke="#068922" stroke-miterlimit="10" points="6.347,28.269 25.31,28.269 30.967,28.992 35.098,32.914 
	35.734,37.162 33.636,41.669 27.026,44.269 6.347,44.269 "/>
<polygon fill="none" stroke="#068922" stroke-miterlimit="10" points="48.347,1.269 55.347,1.269 55.347,30.987 57.456,37.088 
	61.18,41.327 68.424,44.631 76.072,43.954 82.489,39.377 84.347,30.987 84.347,1.269 91.347,1.269 91.347,32.003 89.694,40.225 
	84.672,46.666 76.229,50.564 66.965,50.988 58.35,47.937 52.544,43.106 48.347,33.36 48.347,22.852 "/>
<polygon fill="none" stroke="#068922" stroke-miterlimit="10" points="97.177,1.269 105.821,1.269 122.939,23.388 139.889,1.269 
	148.043,1.269 125.347,29.292 125.347,51.269 119.042,51.269 119.212,30.252 "/>
</svg>
