<?xml version="1.0" encoding="utf-8"?>
<!-- Generator: Adobe Illustrator 16.0.0, SVG Export Plug-In . SVG Version: 6.00 Build 0)  -->
<!DOCTYPE svg PUBLIC "-//W3C//DTD SVG 1.1//EN" "http://www.w3.org/Graphics/SVG/1.1/DTD/svg11.dtd">
<svg version="1.1" id="Layer_1" xmlns="http://www.w3.org/2000/svg" xmlns:xlink="http://www.w3.org/1999/xlink" x="0px" y="0px"
	 width="1819px" height="103.333px" viewBox="-1018.153 -306.897 1819 103.333"
	 enable-background="new -1018.153 -306.897 1819 103.333" xml:space="preserve">
<rect x="-610.527" y="-302.869" fill="none" stroke="#068922" stroke-width="3" stroke-miterlimit="10" width="119.993" height="92.138"/>
<rect x="-363.54" y="-302.869" fill="none" stroke="#068922" stroke-width="3" stroke-miterlimit="10" width="187.989" height="92.138"/>
<rect x="310.57" y="-302.869" fill="none" stroke="#068922" stroke-width="3" stroke-miterlimit="10" width="386.68" height="92.138"/>
<rect x="-58.06" y="-302.869" fill="none" stroke="#068922" stroke-width="3" stroke-miterlimit="10" width="256.987" height="92.138"/>
<polygon fill="none" stroke="#068922" stroke-width="3" stroke-miterlimit="10" points="-1014.653,-303.731 -940.653,-303.731 
	-940.653,-291.731 -1001.653,-291.731 -1001.653,-265.731 -966.653,-265.731 -966.653,-253.731 -1001.653,-253.731 
	-1001.653,-221.731 -934.653,-221.731 -934.653,-209.731 -1014.653,-209.731 "/>
<path fill="none" stroke="#068922" stroke-width="3" stroke-miterlimit="10" d="M-869.087-304.731h-9.976l-43.964,95h13.023
	l10.621-23h49.967l10.621,23h13.484L-869.087-304.731z M-894.21-244.731l19.812-42.446l19.812,42.446H-894.21z"/>
<path fill="none" stroke="#068922" stroke-width="3" stroke-miterlimit="10" d="M-744.402-254.274l10.344-5.158l5.542-6.655
	l3.14-11.039l-0.83-9.907l-4.988-9.987l-10.066-6.072l-13.301-1.639h-54.091v95h13v-42h37.674l22.628,41h13.67L-744.402-254.274z
	 M-756.87-263.731h-38.782v-29h40.353l9.236,1.175l5.726,4.697l1.663,7.013l-1.848,8.909l-7.943,5.821L-756.87-263.731z"/>
<polygon fill="none" stroke="#068922" stroke-width="3" stroke-miterlimit="10" points="-628.227,-279.731 -633.468,-290.691 
	-643.986,-299.541 -656.448,-304.244 -669.376,-305.349 -683.875,-303.961 -696.62,-298.418 -704.747,-288.351 -706.226,-277.082 
	-702.808,-266.738 -695.05,-259.072 -684.428,-254.638 -672.79,-252.976 -661.338,-251.683 -650.532,-249.836 -641.573,-244.571 
	-638.71,-235.521 -639.91,-229.886 -645.637,-223.79 -655.796,-220.096 -666.787,-219.449 -677.501,-221.296 -686.829,-225.729 
	-692.74,-231.599 -695.697,-236.731 -709.642,-236.731 -704.378,-225.688 -696.712,-217.396 -688.491,-212.56 -677.686,-208.99 
	-667.618,-207.731 -656.073,-207.731 -645.36,-210.911 -633.815,-217.352 -627.626,-226.251 -625.964,-236.889 -627.534,-246.409 
	-633.075,-254.634 -641.019,-259.901 -649.886,-262.765 -660.507,-264.427 -671.683,-265.537 -682.673,-267.661 -690.616,-272.279 
	-693.387,-278.929 -691.909,-285.487 -685.074,-291.121 -675.284,-293.522 -664.571,-293.43 -653.857,-290.751 -646.099,-286.073 
	-641.481,-279.731 "/>
<polygon fill="none" stroke="#068922" stroke-width="3" stroke-miterlimit="10" points="215.347,-303.731 289.347,-303.731 
	289.347,-291.731 228.347,-291.731 228.347,-264.731 263.347,-264.731 263.347,-253.731 228.347,-253.731 228.347,-221.731 
	295.347,-221.731 295.347,-209.731 215.347,-209.731 "/>
<path fill="none" stroke="#068922" stroke-width="3" stroke-miterlimit="10" d="M-93.978-251.439l9.853-5.849l4.869-7.719
	l2.273-11.045l-0.986-9.367l-5.787-10.225l-8.621-5.829l-12.93-2.258h-54.346v94h13v-39h38.021L-93.978-251.439z M-108.155-260.428
	l-38.498-0.123v-31.18h40.607l8.797,1.125l5.61,5.728l1.231,7.176l-1.016,8.502l-8.059,6.789L-108.155-260.428z"/>
<polygon fill="none" stroke="#068922" stroke-width="3" stroke-miterlimit="10" points="-428.823,-304.944 -412.22,-302.796 
	-399.116,-296.689 -388.87,-286.985 -381.486,-273.59 -378.716,-259.272 -380.564,-242.833 -387.214,-228.147 -396.634,-218.171 
	-409.011,-210.968 -424.528,-207.827 -438.751,-209.259 -452.698,-214.2 -464.889,-224.544 -472.572,-236.089 -476.653,-249.112 
	-476.653,-263.059 -472.71,-276.358 -465.428,-287.903 -456.061,-296.4 -443.711,-302.588 "/>
<polygon fill="none" stroke="#068922" stroke-width="3" stroke-miterlimit="10" points="-428.638,-293.122 -415.038,-290.974 
	-404.958,-285.329 -397.552,-275.44 -393.653,-262.688 -393.653,-251.976 -396.484,-238.491 -404.133,-228.423 -412.483,-222.882 
	-424.047,-219.741 -437.772,-221.034 -450.315,-227.869 -459.54,-240.338 -462.863,-253.36 -461.289,-267.584 -455.654,-279.406 
	-447.064,-287.534 -437.089,-291.967 "/>
<polygon fill="none" stroke="#068922" stroke-width="3" stroke-miterlimit="10" points="713.347,-303.731 730.544,-303.731 
	786.347,-231.538 786.347,-303.731 798.347,-303.731 798.347,-208.731 790.762,-208.731 726.347,-288.569 726.347,-209.731 
	713.347,-209.731 "/>
</svg>
