<?xml version="1.0" encoding="utf-8"?>
<!-- Generator: Adobe Illustrator 16.0.0, SVG Export Plug-In . SVG Version: 6.00 Build 0)  -->
<!DOCTYPE svg PUBLIC "-//W3C//DTD SVG 1.1//EN" "http://www.w3.org/Graphics/SVG/1.1/DTD/svg11.dtd">
<svg version="1.1" id="Layer_1" xmlns="http://www.w3.org/2000/svg" xmlns:xlink="http://www.w3.org/1999/xlink" x="0px" y="0px"
	 width="1806px" height="96px" viewBox="0 0 1806 96" enable-background="new 0 0 1806 96" xml:space="preserve">
<g>
	<g>
		<rect x="1305.5" y="4.667" fill="none" stroke="#05B521" stroke-width="3" stroke-miterlimit="10" width="411" height="88"/>
	</g>
</g>
<g>
	<g>
		<rect x="921.5" y="4.667" fill="none" stroke="#05B521" stroke-width="3" stroke-miterlimit="10" width="292" height="88"/>
	</g>
</g>
<g>
	<g>
		<rect x="627.5" y="4.667" fill="none" stroke="#05B521" stroke-width="3" stroke-miterlimit="10" width="198" height="88"/>
	</g>
</g>
<g>
	<g>
		<rect x="322.5" y="4.667" fill="none" stroke="#05B521" stroke-width="3" stroke-miterlimit="10" width="184" height="88"/>
	</g>
</g>
<rect x="519.854" y="3.376" fill="none" width="129.832" height="104.624"/>
<g enable-background="new    ">
	<path fill="none" stroke="#05B521" stroke-width="3" stroke-miterlimit="10" d="M524.247,47.658
		c0-25.782,16.88-45.899,42.778-45.899c25.782,0,42.431,20.233,42.431,45.899c0,26.13-17.573,45.321-42.431,45.321
		C542.051,92.979,524.247,73.788,524.247,47.658z M598.819,47.543c0-20.349-12.371-35.841-31.794-35.841s-31.91,15.492-31.91,35.841
		c0,20.927,13.527,35.609,31.91,35.609C585.292,83.152,598.819,68.585,598.819,47.543z"/>
</g>
<rect x="-4" y="3.376" fill="none" width="320.083" height="104.624"/>
<g enable-background="new    ">
	<path fill="none" stroke="#05B521" stroke-width="3" stroke-miterlimit="10" d="M3.284,3.84h60.583v9.827h-50.64v27.517h46.825
		v9.828H13.227V80.84h51.681v9.943H3.284V3.84z"/>
	<path fill="none" stroke="#05B521" stroke-width="3" stroke-miterlimit="10" d="M106.645,3.84h11.793l33.76,86.943h-10.637
		l-9.827-25.32h-38.5l-9.712,25.32H72.654L106.645,3.84z M127.803,55.752l-15.146-39.888L97.165,55.752H127.803z"/>
</g>
<g enable-background="new    ">
	<path fill="none" stroke="#05B521" stroke-width="3" stroke-miterlimit="10" d="M163.065,3.84h36.072
		c17.342,0,27.863,11.1,27.863,24.974c0,9.711-5.087,17.688-14.915,21.735c11.099,6.475,7.284,21.273,17.111,40.234h-11.33
		c-5.781-8.671-4.972-37.46-19.771-37.46h-25.089v37.46h-9.943V3.84z M198.906,43.496c10.521,0,17.92-6.127,17.92-15.146
		c0-8.556-6.706-14.684-17.92-14.684h-25.898v29.829H198.906z"/>
</g>
<g enable-background="new    ">
	<path fill="none" stroke="#05B521" stroke-width="3" stroke-miterlimit="10" d="M237.407,65.926l9.711-2.196
		c1.734,12.023,10.059,19.191,23.585,19.191c12.14,0,21.736-5.665,21.736-14.914c0-6.59-4.855-12.14-23.817-17.805
		c-21.504-6.128-28.672-13.989-28.672-25.551c0-14.915,12.024-22.893,29.482-22.893c19.539,0,28.21,9.943,31.216,23.586
		l-9.712,2.196c-2.428-11.215-10.059-15.955-21.851-15.955c-11.099,0-18.961,4.162-18.961,12.14c0,6.475,5.087,11.446,22.661,16.996
		c20.926,6.475,29.944,13.527,29.944,26.938c0,16.648-13.99,25.319-31.794,25.319C252.321,92.979,239.603,83.269,237.407,65.926z"/>
</g>
<rect x="834.912" y="3.376" fill="none" width="115.847" height="104.624"/>
<g enable-background="new    ">
	<path fill="none" stroke="#05B521" stroke-width="3" stroke-miterlimit="10" d="M842.196,3.84h35.263
		c17.689,0,27.863,11.1,27.863,24.626c0,13.759-10.521,24.857-27.863,24.857h-25.205v37.46h-10.059V3.84z M877.343,43.496
		c10.521,0,17.689-5.78,17.689-15.03c0-9.133-6.821-14.799-17.689-14.799h-25.089v29.829H877.343z"/>
</g>
<rect x="1220.306" y="3.859" fill="none" width="107.91" height="97.509"/>
<g enable-background="new    ">
	<path fill="none" stroke="#05B521" stroke-width="3" stroke-miterlimit="10" d="M1227.59,4.322h60.584v9.827h-50.641v27.517h46.824
		v9.828h-46.824v29.828h51.681v9.943h-61.624V4.322z"/>
</g>
<rect x="1728.346" y="3.859" fill="none" width="115.58" height="104.142"/>
<g enable-background="new    ">
	<path fill="none" stroke="#05B521" stroke-width="3" stroke-miterlimit="10" d="M1735.629,4.322h12.487l46.593,71.913V4.322h9.943
		v86.943h-12.256l-46.709-72.26v72.26h-10.059V4.322z"/>
</g>
</svg>
